<svg xmlns="http://www.w3.org/2000/svg" xmlns:xlink="http://www.w3.org/1999/xlink" width="400" height="400" viewBox="0, 0, 400,400"><g><path d="M361.328 24.634 C 360.898 24.760,359.492 25.090,358.203 25.367 C 356.430 25.748,336.886 44.832,277.930 103.751 L 200.000 181.630 122.461 104.141 C 63.729 45.447,44.353 26.531,42.578 26.152 C 41.289 25.876,39.757 25.501,39.174 25.318 C 34.894 23.974,27.311 29.477,25.821 35.008 C 23.781 42.584,18.944 37.183,104.155 122.463 L 181.634 200.004 104.179 277.541 C 20.999 360.810,24.999 356.511,25.003 362.644 C 25.008 370.270,29.730 374.992,37.356 374.997 C 43.489 375.001,39.190 379.002,122.461 295.819 L 200.000 218.362 277.539 295.819 C 360.929 379.120,356.496 375.000,362.724 375.000 C 371.964 375.000,378.326 365.021,374.228 356.953 C 373.704 355.922,338.420 320.186,295.819 277.539 L 218.362 200.000 295.819 122.461 C 338.420 79.814,373.664 44.154,374.138 43.215 C 378.302 34.974,369.518 22.233,361.328 24.634 "></path></g></svg>