<svg xmlns="http://www.w3.org/2000/svg" xmlns:xlink="http://www.w3.org/1999/xlink" width="current" height="current" viewBox="0, 0, 400,400"><g><path d="M193.773 17.235 C 190.265 18.709,186.729 21.919,184.954 25.241 L 183.203 28.516 182.997 135.126 L 182.791 241.737 145.887 204.983 C 106.961 166.214,107.178 166.397,100.300 166.411 C 87.582 166.435,79.392 180.009,85.217 191.406 C 86.981 194.858,189.352 297.066,192.735 298.753 C 196.288 300.525,204.004 300.389,207.648 298.490 C 211.190 296.645,313.451 194.312,315.048 191.016 C 320.487 179.787,312.158 166.435,299.700 166.411 C 292.822 166.397,293.039 166.214,254.113 204.983 L 217.209 241.737 217.003 135.126 L 216.797 28.516 214.844 25.035 C 210.954 18.103,200.721 14.314,193.773 17.235 M26.172 267.887 C 16.288 272.464,16.403 271.784,16.423 325.170 C 16.444 378.654,16.332 378.036,26.733 382.380 C 31.645 384.433,369.380 384.172,373.828 382.113 C 377.657 380.340,380.771 377.119,382.380 373.267 C 384.206 368.897,384.206 281.103,382.380 276.733 C 377.326 264.633,360.098 262.814,352.627 273.591 L 350.391 276.818 350.173 313.409 L 349.955 350.000 200.000 350.000 L 50.045 350.000 49.827 313.409 L 49.609 276.818 47.373 273.591 C 42.942 267.199,33.275 264.599,26.172 267.887 "></path></g></svg>