<svg xmlns="http://www.w3.org/2000/svg" xmlns:xlink="http://www.w3.org/1999/xlink" width="400" height="400" viewBox="0, 0, 400,400"><g><path d="M92.969 23.082 C 37.852 32.649,0.028 80.962,0.028 141.797 C 0.028 193.058,23.995 232.055,93.669 294.157 C 126.479 323.402,185.905 373.764,189.844 375.663 C 195.935 378.599,204.060 378.601,210.156 375.666 C 216.050 372.829,299.326 301.236,327.514 274.773 C 388.682 217.349,409.974 166.617,396.603 110.156 C 375.006 18.955,265.632 -9.272,206.576 61.115 C 199.255 69.841,200.745 69.841,193.424 61.115 C 168.006 30.820,130.406 16.584,92.969 23.082 M132.031 48.379 C 150.355 53.665,168.485 67.173,180.689 84.632 C 183.361 88.454,186.509 92.939,187.685 94.598 C 193.550 102.872,206.450 102.872,212.315 94.598 C 213.491 92.939,216.639 88.454,219.311 84.632 C 243.730 49.699,283.602 37.034,321.109 52.297 C 369.999 72.194,390.350 136.645,364.578 189.963 C 352.830 214.268,329.589 240.886,287.718 277.992 C 258.939 303.495,200.419 353.153,199.541 352.816 C 198.359 352.363,130.662 294.288,112.109 277.812 C 45.184 218.377,24.576 186.244,24.627 141.406 C 24.683 91.486,54.313 53.632,98.828 46.610 C 105.280 45.592,126.243 46.709,132.031 48.379 "></path></g></svg>