<svg xmlns="http://www.w3.org/2000/svg" xmlns:xlink="http://www.w3.org/1999/xlink" width="400" height="400" viewBox="0, 0, 400,400"><g><path d="M182.612 8.602 C 14.235 23.801,-61.113 224.311,57.038 342.770 C 86.123 371.931,135.867 398.142,146.769 390.050 C 150.552 387.242,150.757 386.032,150.770 366.525 L 150.781 348.284 145.898 348.947 C 117.625 352.784,94.033 344.280,85.813 327.289 C 78.067 311.279,76.015 307.544,72.670 303.375 C 70.498 300.667,65.992 296.550,62.408 294.000 C 51.214 286.035,50.585 282.875,60.056 282.190 C 71.549 281.358,83.365 288.889,92.998 303.183 C 104.433 320.153,119.275 326.350,138.672 322.256 C 150.066 319.851,151.120 319.197,152.126 313.904 C 153.273 307.870,157.651 298.704,161.336 294.626 C 162.935 292.855,163.940 291.405,163.567 291.403 C 142.604 291.306,111.893 279.028,97.430 264.962 C 68.384 236.714,64.158 179.990,88.703 147.816 L 93.052 142.116 91.281 135.316 C 88.177 123.398,89.078 107.591,93.605 94.531 L 95.095 90.234 101.258 90.342 C 111.492 90.521,125.252 95.700,141.348 105.430 L 149.493 110.353 156.973 108.693 C 184.642 102.551,213.921 102.424,240.712 108.329 L 249.783 110.329 257.900 105.514 C 275.080 95.322,287.758 90.521,297.960 90.342 L 304.124 90.234 305.613 94.531 C 310.635 109.017,311.263 125.381,307.281 138.012 L 306.003 142.066 309.332 146.042 C 326.180 166.165,330.883 195.066,322.647 227.855 C 313.780 263.152,287.929 283.771,244.922 289.848 C 233.925 291.402,234.523 290.935,238.292 295.025 C 247.344 304.844,248.623 311.957,248.482 351.701 C 248.389 377.985,248.567 383.953,249.510 386.211 C 253.039 394.657,263.026 393.312,288.672 380.937 C 404.228 325.178,436.498 178.642,354.953 79.962 C 314.086 30.507,247.120 2.779,182.612 8.602 "></path></g></svg>