<svg xmlns="http://www.w3.org/2000/svg" xmlns:xlink="http://www.w3.org/1999/xlink" width="400" height="400" viewBox="0, 0, 400,400"><g><path d="M80.657 1.558 C 75.189 4.892,75.006 5.783,75.003 29.102 L 75.000 50.000 87.500 50.000 L 100.000 50.000 100.000 37.500 L 100.000 25.000 225.000 25.000 L 350.000 25.000 350.000 200.000 L 350.000 375.000 225.000 375.000 L 100.000 375.000 100.000 362.500 L 100.000 350.000 87.500 350.000 L 75.000 350.000 75.003 370.898 C 75.006 394.217,75.189 395.108,80.657 398.442 C 84.668 400.887,365.332 400.887,369.343 398.442 C 375.600 394.627,374.994 415.893,374.994 200.000 C 374.994 -15.893,375.600 5.373,369.343 1.558 C 365.332 -0.887,84.668 -0.887,80.657 1.558 M157.220 124.420 C 152.390 129.264,148.438 133.572,148.438 133.992 C 148.438 134.413,160.301 146.624,174.800 161.129 L 201.163 187.500 113.082 187.500 L 25.000 187.500 25.000 200.000 L 25.000 212.500 113.082 212.500 L 201.163 212.500 174.800 238.871 C 160.301 253.376,148.438 265.598,148.438 266.033 C 148.438 266.467,152.396 270.770,157.234 275.594 L 166.031 284.366 208.209 242.182 L 250.387 199.998 208.194 157.806 L 166.002 115.613 157.220 124.420 "></path></g></svg>