<svg xmlns="http://www.w3.org/2000/svg" xmlns:xlink="http://www.w3.org/1999/xlink" width="400" height="400" viewBox="0, 0, 400,400"><g><path d="M22.656 1.429 C 12.149 5.337,4.704 12.852,1.295 22.991 C -0.697 28.915,-0.697 371.085,1.295 377.009 C 4.703 387.146,12.827 395.268,22.991 398.700 C 28.553 400.578,237.122 400.690,243.293 398.818 C 255.395 395.147,264.490 384.521,266.482 371.725 C 266.929 368.848,267.160 353.619,267.027 335.652 L 266.797 304.558 264.245 302.279 L 261.694 300.000 250.000 300.000 L 238.306 300.000 235.755 302.279 L 233.203 304.558 232.974 335.482 L 232.744 366.406 133.169 366.406 L 33.594 366.406 33.594 200.000 L 33.594 33.594 133.169 33.594 L 232.744 33.594 232.974 64.518 L 233.203 95.442 235.755 97.721 L 238.306 100.000 250.000 100.000 L 261.694 100.000 264.245 97.721 L 266.797 95.442 267.027 64.348 C 267.160 46.381,266.929 31.152,266.482 28.275 C 264.500 15.549,255.329 4.833,243.293 1.182 C 237.109 -0.694,27.734 -0.460,22.656 1.429 M285.498 102.393 C 283.242 104.745,283.199 104.952,282.940 114.689 C 282.539 129.795,280.159 126.532,313.350 156.385 L 342.297 182.422 223.428 182.813 L 104.559 183.203 102.280 185.755 L 100.000 188.306 100.000 200.000 L 100.000 211.694 102.280 214.245 L 104.559 216.797 223.428 217.188 L 342.297 217.578 313.350 243.615 C 280.159 273.468,282.539 270.205,282.940 285.311 C 283.263 297.463,284.746 300.000,291.525 300.000 C 296.060 300.000,289.539 305.531,348.034 252.070 C 402.882 201.944,400.000 204.831,400.000 200.000 C 400.000 196.979,399.565 195.877,397.461 193.568 C 395.208 191.095,305.620 108.935,298.202 102.539 C 294.055 98.962,288.845 98.902,285.498 102.393 "></path></g></svg>